# xmcd
#
# Track frame offsets:
#	150
#	26272
#	49463
#	73501
#	108810
#	131996
#	146855
#	172372
#	200279
#	230812
#	247381
#
# Disc length: 3831 seconds
#
# Revision: 1
# Processed by: cddbd v1.5PL3 Copyright (c) Steve Scherf et al.
# Submitted via: EasyCDDAExtractor 7.0.5.1
#
DISCID=b10ef50b
DTITLE=Tommy Castro - Live At Fillmore
DYEAR=2000
DGENRE=Blues
TTITLE0=Right as Rain
TTITLE1=Like an Angel
TTITLE2=Nasty Habits
TTITLE3=My Time After Awhile
TTITLE4=Lucky in Love
TTITLE5=I Got to Change
TTITLE6=Can't You See What You're Doing to Me
TTITLE7=Just a Man
TTITLE8=Keep a Good Man Down
TTITLE9=The Girl Can't Help It
TTITLE10=Get Up (I Feel Like Being A) Sex Machine
EXTD=
EXTT0=
EXTT1=
EXTT2=
EXTT3=
EXTT4=
EXTT5=
EXTT6=
EXTT7=
EXTT8=
EXTT9=
EXTT10=
PLAYORDER=
